<svg xmlns="http://www.w3.org/2000/svg" viewBox="0 0 30.96 71.36"><defs><style>.cls-1,.cls-2,.cls-3{fill:none;stroke:#7e7d91;stroke-width:2.5px;}.cls-1{stroke-linejoin:round;}.cls-2{stroke-linecap:round;}.cls-2,.cls-3{stroke-miterlimit:10;}</style></defs><title>Bouteille D&amp;apos;eau Fournie</title><g id="Layer_2" data-name="Layer 2"><g id="icons"><path class="cls-1" d="M10.54,8.13V3.25a2,2,0,0,1,2-2h5.88a2,2,0,0,1,2,2V8.13"/><line class="cls-2" x1="7.07" y1="12.45" x2="23.89" y2="12.45"/><path class="cls-3" d="M23.67,51.39a6.06,6.06,0,0,1,6,6v6.67a6,6,0,0,1-6,6H7.25a6,6,0,0,1-6-6V57.44a6.06,6.06,0,0,1,6-6"/><path class="cls-2" d="M16.18,43.23H4.49A3.24,3.24,0,0,1,1.25,40V38.32a3.25,3.25,0,0,1,3.24-3.24H16.26"/><path class="cls-2" d="M4.49,35.08a3.27,3.27,0,0,1-3.24-3.26V29.45S1.18,25.08,11.34,13"/><path class="cls-2" d="M26.47,35.09a3.28,3.28,0,0,0,3.24-3.27V29.45S29.78,25.08,19.62,13"/><path class="cls-2" d="M22.36,43.23h4.07a3.25,3.25,0,0,1,3.24,3.24v1.68a3.25,3.25,0,0,1-3.24,3.24H17.27"/><path class="cls-2" d="M8.24,51.39H4.49a3.25,3.25,0,0,1-3.24-3.24V46.47a3.25,3.25,0,0,1,3.24-3.24H8.24"/><path class="cls-2" d="M17.27,35.09h9.16a3.24,3.24,0,0,1,3.24,3.23V40a3.24,3.24,0,0,1-3.24,3.23H22.36"/></g></g></svg>