<svg xmlns="http://www.w3.org/2000/svg" viewBox="0 0 50.86 64.39"><defs><style>.cls-1,.cls-2{fill:none;stroke:#7e7d91;stroke-linejoin:round;stroke-width:2.5px;}.cls-2{stroke-linecap:round;}</style></defs><title>Chaussures Fournies</title><g id="Layer_2" data-name="Layer 2"><g id="icons"><path class="cls-1" d="M23.28,16.82V33L7.67,41.11a11.88,11.88,0,0,0-5.09,16A11.88,11.88,0,0,0,18.66,61.7l24.7-13.19a11,11,0,0,0,2.94-2.58,8.36,8.36,0,0,0,1.15-3.8V12.75"/><path class="cls-2" d="M19.45,61.26a18.26,18.26,0,0,0-2.29-11.81,18.88,18.88,0,0,0-4.33-5.23"/><path class="cls-2" d="M35,12.75H47.61a2,2,0,0,0,2-2V3.25a2,2,0,0,0-2-2h-25a2,2,0,0,0-2,2v7.5a2,2,0,0,0,2,2h4.92"/><path class="cls-2" d="M47.37,33.72c-4.51-.46-9.26,2.71-11.34,7.94A12.74,12.74,0,0,0,36.24,52"/></g></g></svg>