<svg xmlns="http://www.w3.org/2000/svg" viewBox="0 0 60.92 65.61"><defs><style>.cls-1,.cls-2{fill:none;stroke:#7e7d91;stroke-linejoin:round;stroke-width:2.5px;}.cls-1{stroke-linecap:round;}</style></defs><title>Conseils Nutrition</title><g id="Layer_2" data-name="Layer 2"><g id="icons"><path class="cls-1" d="M45.06,11.94c-3.4,4.3-10.73,3.88-10.73,3.88s-.19-8,3.8-10.94c3-2.2,11-3.63,11-3.63S47.53,8.83,45.06,11.94Z"/><path class="cls-1" d="M47.22,28c2.37.88,4.75,3,5.91,7.81"/><path class="cls-2" d="M14.16,56.36A30.05,30.05,0,0,0,19,61.85s3.77,4.39,10.16,1.55a17.69,17.69,0,0,1,5-1.19,17.59,17.59,0,0,1,5,1.19c6.4,2.84,10.17-1.55,10.17-1.55,13.2-11.83,10-28.76,10-28.76C55.35,16.7,41.44,21.8,41.44,21.8a40.22,40.22,0,0,1-7.27.91,40.22,40.22,0,0,1-7.27-.91S13,16.7,9,33.09a28.31,28.31,0,0,0-.34,5.59"/><path class="cls-1" d="M27.1,7.12s4.34,1.74,7.23,8.7"/><path class="cls-1" d="M9.59,30.45H5.73a4.32,4.32,0,0,0-4.48,4.12,4.33,4.33,0,0,0,4.48,4.12H33.6V51.47H5.73a4.33,4.33,0,0,1-4.48-4.12V34.57"/><line class="cls-1" x1="9.93" y1="51.19" x2="9.93" y2="46.35"/><line class="cls-1" x1="18.02" y1="51.19" x2="18.02" y2="46.35"/><line class="cls-1" x1="26.11" y1="51.19" x2="26.11" y2="46.35"/></g></g></svg>