<svg xmlns="http://www.w3.org/2000/svg" viewBox="0 0 50.95 58.32"><defs><style>.cls-1,.cls-2{fill:none;stroke:#7e7d91;stroke-linecap:round;stroke-width:2.5px;}.cls-1{stroke-linejoin:round;}.cls-2{stroke-miterlimit:10;}</style></defs><title>Douches</title><g id="Layer_2" data-name="Layer 2"><g id="icons"><path class="cls-1" d="M43.21,25.82c0-7.78-8.69-14.08-19.42-14.08-8.78,0-16.21,4.23-18.6,10"/><path class="cls-2" d="M49.7,1.25H29.37a5.58,5.58,0,0,0-5.56,5.57v4.72"/><path class="cls-1" d="M15.75,26.15H44.33a2,2,0,0,1,2,2v3.2H1.25v-3.2a2,2,0,0,1,2-2H7.88"/><line class="cls-1" x1="8.67" y1="37.02" x2="8.67" y2="43.11"/><line class="cls-1" x1="8.67" y1="47.63" x2="8.67" y2="48.86"/><line class="cls-1" x1="8.67" y1="53.26" x2="8.67" y2="57.03"/><line class="cls-1" x1="23.12" y1="37.02" x2="23.12" y2="42.17"/><line class="cls-1" x1="23.13" y1="55.1" x2="23.13" y2="57.07"/><line class="cls-1" x1="23.12" y1="46.6" x2="23.12" y2="50.83"/><line class="cls-1" x1="15.9" y1="37.02" x2="15.9" y2="46.33"/><line class="cls-1" x1="15.9" y1="50.93" x2="15.9" y2="57.04"/><line class="cls-1" x1="30.35" y1="57.07" x2="30.35" y2="51.41"/><line class="cls-1" x1="30.35" y1="38.83" x2="30.35" y2="37.02"/><line class="cls-1" x1="30.35" y1="46.98" x2="30.35" y2="43.33"/><line class="cls-1" x1="37.58" y1="57.07" x2="37.58" y2="47.99"/><line class="cls-1" x1="37.58" y1="43.44" x2="37.58" y2="37.05"/></g></g></svg>