<svg xmlns="http://www.w3.org/2000/svg" viewBox="0 0 63.82 50.85"><defs><style>.cls-1,.cls-2{fill:none;stroke:#7e7d91;stroke-width:2.5px;}.cls-1{stroke-miterlimit:10;}.cls-2{stroke-linecap:round;stroke-linejoin:round;}</style></defs><title>Espace Détente</title><g id="Layer_2" data-name="Layer 2"><g id="icons"><path class="cls-1" d="M10.39,16.26V5.72a4.37,4.37,0,0,1,4.24-4.47H49.19a4.37,4.37,0,0,1,4.24,4.47V16.26"/><line class="cls-1" x1="14.28" y1="28.12" x2="49.55" y2="28.12"/><path class="cls-1" d="M58.33,44.49a4.25,4.25,0,0,0,4.24-4.24V25.13a4.25,4.25,0,0,0-4.24-4.24H53.72a4.26,4.26,0,0,0-4.24,4.24V35H14.34V25.13a4.26,4.26,0,0,0-4.24-4.24H5.49a4.26,4.26,0,0,0-4.24,4.24V40.25a4.26,4.26,0,0,0,4.24,4.24Z"/><polyline class="cls-2" points="13.48 44.76 13.48 49.6 5.93 49.6"/><polyline class="cls-2" points="57.89 44.76 57.89 49.6 50.35 49.6"/></g></g></svg>