<svg xmlns="http://www.w3.org/2000/svg" viewBox="0 0 44.21 62.45"><defs><style>.cls-1{fill:none;stroke:#7e7d91;stroke-linejoin:round;stroke-width:2.5px;}</style></defs><title>Gants Fournis</title><g id="Layer_2" data-name="Layer 2"><g id="icons"><polyline class="cls-1" points="42.3 54.73 23.49 54.73 30.49 46.53 42.3 46.53"/><path class="cls-1" d="M29,28.13v-24a2.84,2.84,0,0,0-2.83-2.84H24.8A2.85,2.85,0,0,0,22,4.08V9.32"/><path class="cls-1" d="M36,28.13V7.29a2.83,2.83,0,0,0-2.83-2.83H31.8A2.84,2.84,0,0,0,29,7.29v3"/><path class="cls-1" d="M22,28.13V9.56a2.83,2.83,0,0,0-2.83-2.83H17.8A2.84,2.84,0,0,0,15,9.56V33.39L8.31,25.26a3.57,3.57,0,0,0-4.86-.57l-.82.63a3.58,3.58,0,0,0-.75,4.85l11.94,17v14H43V12.94a2.85,2.85,0,0,0-2.83-2.84H38.79A2.85,2.85,0,0,0,36,12.94v7.19"/></g></g></svg>