<svg xmlns="http://www.w3.org/2000/svg" viewBox="0 0 70.39 50.66"><defs><style>.cls-1,.cls-2{fill:none;stroke:#7e7d91;stroke-linejoin:round;stroke-width:2.5px;}.cls-1{stroke-linecap:round;}</style></defs><title>Parking Gratuit</title><g id="Layer_2" data-name="Layer 2"><g id="icons"><path class="cls-1" d="M7.73,31.5H21.07s-.53-5.84-4.12-5.84H13.41"/><path class="cls-1" d="M62.66,31.5H49.32s.53-5.84,4.12-5.84H57"/><path class="cls-1" d="M21.69,15.59H52.58s3.47.15,4.84-1.85"/><line class="cls-1" x1="15.89" y1="42.97" x2="54.49" y2="42.97"/><path class="cls-2" d="M20.46,43v5.25a1.14,1.14,0,0,1-1.14,1.14h-9a1.15,1.15,0,0,1-1.14-1.14V42.78a2.83,2.83,0,0,1-1.8-2.59V26.66a18.77,18.77,0,0,1,.62-3l4.15-9,2.44-7.61c.68-3.78,5.72-5.81,8-5.81H47.85c2.26,0,7.31,2,8,5.81l2.44,7.61,4.15,9a18.77,18.77,0,0,1,.62,3V40.19a2.82,2.82,0,0,1-1.79,2.59v5.49a1.14,1.14,0,0,1-1.14,1.14h-9a1.15,1.15,0,0,1-1.14-1.14V43"/><path class="cls-1" d="M7.92,12.63H4.74c-3.14,0-3.49,4.7-3.49,4.7l8.88.78"/><path class="cls-1" d="M60.26,18.11l8.88-.78s-.36-4.7-3.49-4.7H62.47"/><polyline class="cls-2" points="25.06 42.96 25.06 37.11 45.33 37.11 45.33 42.96"/></g></g></svg>