<svg xmlns="http://www.w3.org/2000/svg" viewBox="0 0 59.39 59.39"><defs><style>.cls-1,.cls-2{fill:none;stroke:#7e7d91;stroke-width:2.5px;}.cls-1{stroke-linejoin:round;}.cls-2{stroke-miterlimit:10;}</style></defs><title>Prêt Du Matériel</title><g id="Layer_2" data-name="Layer 2"><g id="icons"><polyline class="cls-1" points="47.87 6.8 52.25 2.42 56.97 7.14 52.73 11.39"/><line class="cls-1" x1="18.88" y1="35.79" x2="32.31" y2="22.36"/><polyline class="cls-1" points="11.45 52.67 7.14 56.97 2.42 52.25 6.9 47.77"/><line class="cls-1" x1="39.04" y1="24.08" x2="23.65" y2="40.47"/><path class="cls-2" d="M22.05,50.93a4,4,0,0,1,0,5.65l-.39.4A4,4,0,0,1,16,57L2.42,43.4a4,4,0,0,1,0-5.66l.39-.39a4,4,0,0,1,5.66,0Z"/><path class="cls-2" d="M49.59,32.84a4,4,0,0,0,5.66,0l.39-.39a4,4,0,0,0,0-5.66l-23-23a4,4,0,0,0-5.65,0l-.4.39a4,4,0,0,0,0,5.66Z"/><path class="cls-2" d="M50.92,22a4,4,0,0,0,5.66,0l.39-.4A4,4,0,0,0,57,16L43.4,2.42a4,4,0,0,0-5.66,0l-.39.39a4,4,0,0,0,0,5.66Z"/><path class="cls-2" d="M32.84,49.59a4,4,0,0,1,0,5.66l-.39.39a4,4,0,0,1-5.66,0l-23-23a4,4,0,0,1,0-5.65l.39-.4a4,4,0,0,1,5.66,0Z"/></g></g></svg>