<svg xmlns="http://www.w3.org/2000/svg" viewBox="0 0 87.06 73.18"><defs><style>.cls-1,.cls-2,.cls-3{fill:none;stroke:#7e7d91;stroke-width:2.5px;}.cls-1,.cls-2{stroke-miterlimit:10;}.cls-2,.cls-3{stroke-linecap:round;}.cls-3{stroke-linejoin:round;}</style></defs><title>Prêt Du Matériel (Sans Balles)</title><g id="Layer_2" data-name="Layer 2"><g id="icons"><circle class="cls-1" cx="71.98" cy="15.08" r="13.83"/><line class="cls-2" x1="76.75" y1="10.31" x2="67.21" y2="19.86"/><line class="cls-2" x1="76.75" y1="19.86" x2="67.21" y2="10.31"/><path class="cls-3" d="M25.36,15.9C29.48,21.06,27,28.38,21,33c-4.14,3.21-9,4.31-12.77,3.25"/><path class="cls-3" d="M38,17C41,24.43,37.07,35,28,42"/><path class="cls-3" d="M47.13,21.82C50.67,30.61,46,43.26,35.32,51.48,28,57.11,19.6,59.55,12.57,58.72"/><path class="cls-3" d="M54.06,30c3.06,9.33-1.76,21.65-12.32,29.82-10,7.69-22.32,9.62-30.6,5.35"/><path class="cls-3" d="M51.75,26.49a28.19,28.19,0,1,1-39.55-5A28.19,28.19,0,0,1,51.75,26.49Z"/></g></g></svg>