<svg xmlns="http://www.w3.org/2000/svg" viewBox="0 0 51.52 61.04"><defs><style>.cls-1,.cls-2,.cls-3{fill:none;stroke:#7e7d91;stroke-width:2.5px;}.cls-1,.cls-3{stroke-miterlimit:10;}.cls-2,.cls-3{stroke-linecap:round;}.cls-2{stroke-linejoin:round;}</style></defs><title>Salle Réservée Aux Femmes</title><g id="Layer_2" data-name="Layer 2"><g id="icons"><path class="cls-1" d="M15.49,35.64l-5.18,1.73s-9.06,2.27-9.06,9.75V61"/><line class="cls-2" x1="15.49" y1="35.64" x2="25.74" y2="52.54"/><path class="cls-1" d="M36,35.64l5.18,1.73s9.06,2.27,9.06,9.75V61"/><line class="cls-2" x1="36.03" y1="34.96" x2="25.78" y2="52.54"/><path class="cls-2" d="M28.94,9.16s-1.46,9.09-14.07,8.12"/><path class="cls-3" d="M28.13,11.66s3.07,5.38,8.4,5.62"/><path class="cls-2" d="M41.43,30.57V17.68C41.43.37,25.76,1.26,25.76,1.26S10.09.72,10.09,17.68V30.57"/><path class="cls-2" d="M16.45,18.3c0,7.79,4.43,14.87,9.43,14.87s8.89-7.1,8.89-14.43c0,0,0-.18,0-1.4"/></g></g></svg>