<svg xmlns="http://www.w3.org/2000/svg" viewBox="0 0 63.36 58.03"><defs><style>.cls-1,.cls-2,.cls-3{fill:none;stroke:#7e7d91;stroke-width:2.5px;}.cls-1,.cls-3{stroke-miterlimit:10;}.cls-2,.cls-3{stroke-linecap:round;}.cls-2{stroke-linejoin:round;}</style></defs><title>Serviette Fournie</title><g id="Layer_2" data-name="Layer 2"><g id="icons"><path class="cls-1" d="M47.91,37.19l13.34-25a7.4,7.4,0,0,0,.86-3.47,7.49,7.49,0,0,0-7.48-7.46H19.07c-2.35,0-3.67,1.64-4.69,3.94L1.79,28.85"/><path class="cls-2" d="M41,41.78a7.5,7.5,0,0,1,0,15"/><path class="cls-3" d="M38.63,49.56H5.53a3.91,3.91,0,1,1,0-7.78H41a7.46,7.46,0,1,0,0-14.92H5.53a4.11,4.11,0,0,0-4.28,3.9,4.11,4.11,0,0,0,4.28,3.89h33.1"/><path class="cls-1" d="M58.55,17.36a6.44,6.44,0,0,1,.8.57,7.43,7.43,0,0,1,1.9,9.25L48,52"/></g></g></svg>