<svg xmlns="http://www.w3.org/2000/svg" viewBox="0 0 82.81 45.49"><defs><style>.cls-1,.cls-2{fill:none;stroke:#7e7d91;stroke-linejoin:round;stroke-width:2.5px;}.cls-2{stroke-linecap:round;}</style></defs><title>Tapis Fourni</title><g id="Layer_2" data-name="Layer 2"><g id="icons"><path class="cls-1" d="M5.42,20.64l19-16.7a11.43,11.43,0,0,1,9.81-2.45c3.29.7,10.47,4.08,10.61,11.75.08,4.56-.8,7-5,11L26.64,35.52"/><path class="cls-2" d="M49.57,21.6h32L61,44.24H14.89a13.72,13.72,0,0,1,0-27.43,13.43,13.43,0,0,1,13.5,13.71,16.4,16.4,0,0,1-.15,2.12l-.17.64c-2.84,6.5-11.29,5.47-14.17,4.83-7.15-1.59-6.33-7.49-6.33-7.49.13-3.88,2.54-7.25,7.16-7.37,4.16-.11,7,1.91,7.25,5.91,0,0,.59,3.34-4.08,3.67,0,0-2.79.41-4.37-1.34"/></g></g></svg>