<svg xmlns="http://www.w3.org/2000/svg" viewBox="0 0 74.22 71.71"><defs><style>.cls-1,.cls-2{fill:none;stroke:#7e7d91;stroke-linejoin:round;stroke-width:2.5px;}.cls-1{stroke-linecap:round;}</style></defs><title>Vestiaires_1</title><g id="Layer_2" data-name="Layer 2"><g id="icons"><path class="cls-1" d="M43.09,1.25a5.33,5.33,0,1,1,0,10.65v3.68l27.67,15s3.42,2,1.76,5c0,0-1,2.77-7,2.77"/><path class="cls-1" d="M25.88,19.78,3.46,32S.05,34,1.7,37c0,0,1.27,2.14,5.37,2.68"/><polyline class="cls-1" points="49.81 40.02 49.81 70.46 16.6 70.46"/><path class="cls-1" d="M26.17,8a5.33,5.33,0,1,1,5.32,5.32V17L59.16,32s3.42,2,1.76,5c0,0-1.05,2.77-7,2.77H44.85"/><path class="cls-1" d="M12.71,65.21V42.67c0-6.83,3.3-7.88,3.3-7.88H47.27S44,36.14,44,42.67V65.21Z"/><line class="cls-2" x1="43.38" y1="58.46" x2="13.29" y2="58.46"/></g></g></svg>