<svg fill="#7e7d91" xmlns="http://www.w3.org/2000/svg" viewBox="0 0 53.56 65.4">
    <title>coffee</title>
    <path d="M44.34,29h-.9V24.24A1.25,1.25,0,0,0,42.19,23H3.69a1.25,1.25,0,0,0-1.25,1.25V48.62a9.71,9.71,0,0,0,9.71,9.71H33.73a9.72,9.72,0,0,0,9.71-9.71V46.37h.9a9,9,0,0,0,9.22-8.7A9,9,0,0,0,44.34,29Zm-3.4,19.65a7.21,7.21,0,0,1-7.21,7.21H12.15a7.21,7.21,0,0,1-7.21-7.21V25.49h36Zm3.4-4.75h-.9V31.47h.9a6.48,6.48,0,0,1,6.72,6.2A6.48,6.48,0,0,1,44.34,43.87Z"/>
    <rect y="62.9" width="45.87" height="2.5"/>
    <path d="M20,19.66a1.25,1.25,0,0,1-1.25-1.25v-.49a4.16,4.16,0,0,1,4.16-4.15h3.16a1.75,1.75,0,0,0,0-3.49H18.86A5.14,5.14,0,0,1,18.86,0H35a1.25,1.25,0,0,1,0,2.5H18.86a2.65,2.65,0,0,0,0,5.28h7.21a4.25,4.25,0,0,1,0,8.49H22.91a1.66,1.66,0,0,0-1.66,1.65v.49A1.25,1.25,0,0,1,20,19.66Z"/>
    <path d="M10.15,41.78A1.25,1.25,0,0,1,8.9,40.53V30.69a1.25,1.25,0,0,1,2.5,0v9.84A1.25,1.25,0,0,1,10.15,41.78Z"/>
</svg>
